<svg width="504" height="510" viewBox="0 0 504 510" fill="none" xmlns="http://www.w3.org/2000/svg">
<path d="M20.5968 276.698L0 255.576L89.2531 164.223C138.897 114.587 196.462 57.0292 217.587 36.4353L256.141 0L379.722 123.563C447.85 191.682 503.831 250.295 503.831 252.935C503.831 256.104 494.853 267.721 483.763 278.282L463.166 298.348L359.125 194.322L254.556 90.2963L151.044 193.794C93.4782 251.351 45.4187 297.819 43.8343 297.819C42.2499 297.819 31.6875 288.315 20.5968 276.698Z" fill="#CF4E2A"/>
<path d="M170.057 425.079C124.11 379.139 86.6133 338.479 86.6133 334.783C86.6133 327.39 257.198 155.246 264.591 155.246C267.232 155.246 277.266 163.167 285.716 173.2L302.088 190.625L233.96 258.744C196.463 295.707 165.832 327.918 165.832 329.502C165.832 334.255 186.957 355.905 191.71 355.905C193.823 355.905 226.566 325.278 263.535 287.258C338.001 212.275 329.023 215.972 357.541 248.711C367.048 259.8 366.52 260.328 301.032 326.334C264.591 362.769 234.488 394.452 234.488 397.092C234.488 399.733 240.298 407.125 247.691 413.99L261.423 426.663L328.494 359.601C365.463 322.638 397.679 292.539 399.791 292.539C401.904 292.539 410.882 299.931 419.332 309.436L435.704 326.334L344.338 417.686C294.166 467.851 252.973 509.039 252.973 509.039C252.973 509.039 215.476 471.019 170.057 425.079Z" fill="#363636"/>
</svg>
