<svg width="1660" height="749" viewBox="0 0 1660 749" fill="none" xmlns="http://www.w3.org/2000/svg">
<path d="M589.597 276.698L569 255.576L658.253 164.223C707.897 114.587 765.462 57.0292 786.587 36.4353L825.141 0L948.722 123.563C1016.85 191.682 1072.83 250.295 1072.83 252.935C1072.83 256.104 1063.85 267.721 1052.76 278.282L1032.17 298.348L928.125 194.322L823.556 90.2963L720.044 193.794C662.478 251.351 614.419 297.819 612.834 297.819C611.25 297.819 600.687 288.315 589.597 276.698Z" fill="#CF4E2A"/>
<path d="M739.057 425.079C693.11 379.139 655.613 338.479 655.613 334.783C655.613 327.39 826.198 155.246 833.591 155.246C836.232 155.246 846.266 163.167 854.716 173.2L871.088 190.625L802.96 258.744C765.463 295.707 734.832 327.918 734.832 329.502C734.832 334.255 755.957 355.905 760.71 355.905C762.823 355.905 795.566 325.278 832.535 287.258C907.001 212.275 898.023 215.972 926.541 248.711C936.048 259.8 935.52 260.328 870.032 326.334C833.591 362.769 803.488 394.452 803.488 397.092C803.488 399.733 809.298 407.125 816.691 413.99L830.423 426.663L897.494 359.601C934.463 322.638 966.679 292.539 968.791 292.539C970.904 292.539 979.882 299.931 988.332 309.436L1004.7 326.334L913.338 417.686C863.166 467.851 821.973 509.039 821.973 509.039C821.973 509.039 784.476 471.019 739.057 425.079Z" fill="#363636"/>
<path d="M7.4 689V684.2L22.2 677.4V578.2L7.4 571.2V566.6H101.4L96 598.2H90L77.2 576H49.8V621.6H64.6L88.6 619.4L86.2 633L63.6 631.2H49.8V679.6H81.2L101 652.8H107L100.6 689H7.4ZM166.862 693.8L122.663 578.2L113.062 571.4V566.6H167.863V571.4L151.063 578.2L182.863 661.2L214.663 578.2L200.263 571.4V566.6H238.663V571.4L227.263 578.2L183.463 688L166.862 693.8ZM242.752 689V684.2L257.552 677.4V578.2L242.752 571.2V566.6H336.752L331.352 598.2H325.352L312.552 576H285.152V621.6H299.952L323.952 619.4L321.552 633L298.952 631.2H285.152V679.6H316.552L336.352 652.8H342.352L335.952 689H242.752ZM355.209 689V684.2L370.009 677.4L369.809 578.2L355.209 571.2V566.6H389.609L453.809 644.8V578.2L436.609 571.4V566.6H483.609V571.4L468.809 578.2V690.4H456.409L385.009 603.8V677.4L402.209 684.2V689H355.209ZM520.058 689V684.2L536.058 677V576H518.458L497.658 602H491.658L498.058 566.6H607.658L601.258 602H595.258L584.258 576H563.858V677L579.858 684.2V689H520.058ZM617.361 689V684.2L632.161 677.4V578.2L617.361 571.2V566.6H674.561V571.4L659.761 578.2V677.4L674.561 684.2V689H617.361ZM680.05 689V684.2L691.25 677.4L736.25 567.6L753.65 561.8L797.85 677.4L807.25 684.2V689H752.45V684.2L769.25 677.4L757.85 646.8H716.25L704.05 677.4L718.45 684.2V689H680.05ZM719.85 637.4H754.25L737.45 592.8L719.85 637.4ZM855.833 689V684.2L870.633 677.4V578.2L855.833 571.2V566.6H950.233L944.833 598.2H938.833L926.033 576H898.433V623.2H913.233L937.233 621.2L934.633 634.8L912.233 633H898.433V677.4L915.433 684.2V689H855.833ZM961.306 689V684.2L976.106 677.4V578.2L961.306 571.2V566.6H1018.51V571.4L1003.71 578.2V677.4L1018.51 684.2V689H961.306ZM1031.77 689V684.2L1046.57 677.4L1046.37 578.2L1031.77 571.2V566.6H1066.17L1130.37 644.8V578.2L1113.17 571.4V566.6H1160.17V571.4L1145.37 578.2V690.4H1132.97L1061.57 603.8V677.4L1078.77 684.2V689H1031.77ZM1160.91 689V684.2L1172.11 677.4L1217.11 567.6L1234.51 561.8L1278.71 677.4L1288.11 684.2V689H1233.31V684.2L1250.11 677.4L1238.71 646.8H1197.11L1184.91 677.4L1199.31 684.2V689H1160.91ZM1200.71 637.4H1235.11L1218.31 592.8L1200.71 637.4ZM1292.32 689V684.2L1307.12 677.4L1306.92 578.2L1292.32 571.2V566.6H1326.72L1390.92 644.8V578.2L1373.72 571.4V566.6H1420.72V571.4L1405.92 578.2V690.4H1393.52L1322.12 603.8V677.4L1339.32 684.2V689H1292.32ZM1492.57 692.2C1480.57 692.2 1470.17 689.867 1461.37 685.2C1452.71 680.533 1446.04 673.6 1441.37 664.4C1436.71 655.2 1434.37 643.8 1434.37 630.2C1434.37 619 1436.11 609.267 1439.57 601C1443.17 592.6 1447.97 585.667 1453.97 580.2C1460.11 574.6 1467.04 570.4 1474.77 567.6C1482.51 564.8 1490.57 563.4 1498.97 563.4C1506.04 563.4 1512.57 563.933 1518.57 565C1524.71 565.933 1529.91 567.533 1534.17 569.8L1529.17 599H1523.17L1509.57 578C1506.64 576.933 1503.71 576.267 1500.77 576C1497.84 575.733 1494.97 575.6 1492.17 575.6C1485.37 575.6 1479.77 577.267 1475.37 580.6C1470.97 583.8 1467.71 589.067 1465.57 596.4C1463.57 603.6 1462.57 613.133 1462.57 625C1462.57 636.867 1464.17 646.867 1467.37 655C1470.57 663.133 1474.97 669.267 1480.57 673.4C1486.17 677.533 1492.51 679.6 1499.57 679.6C1501.44 679.6 1503.71 679.533 1506.37 679.4C1509.04 679.133 1511.24 678.8 1512.97 678.4L1530.97 652.8H1536.77L1531.17 684.8C1523.57 687.6 1516.44 689.533 1509.77 690.6C1503.24 691.667 1497.51 692.2 1492.57 692.2ZM1552.91 689V684.2L1567.71 677.4V578.2L1552.91 571.2V566.6H1646.91L1641.51 598.2H1635.51L1622.71 576H1595.31V621.6H1610.11L1634.11 619.4L1631.71 633L1609.11 631.2H1595.31V679.6H1626.71L1646.51 652.8H1652.51L1646.11 689H1552.91Z" fill="#363636"/>
</svg>
